<?xml version="1.0" encoding="utf-8" standalone="no"?>
<!DOCTYPE svg PUBLIC "-//W3C//DTD SVG 1.1//EN"
  "http://www.w3.org/Graphics/SVG/1.1/DTD/svg11.dtd">
<svg xmlns:xlink="http://www.w3.org/1999/xlink" width="864pt" height="576pt" viewBox="0 0 864 576" xmlns="http://www.w3.org/2000/svg" version="1.1">
 <metadata>
  <rdf:RDF xmlns:dc="http://purl.org/dc/elements/1.1/" xmlns:cc="http://creativecommons.org/ns#" xmlns:rdf="http://www.w3.org/1999/02/22-rdf-syntax-ns#">
   <cc:Work>
    <dc:type rdf:resource="http://purl.org/dc/dcmitype/StillImage"/>
    <dc:date>2023-01-05T04:12:18.229006</dc:date>
    <dc:format>image/svg+xml</dc:format>
    <dc:creator>
     <cc:Agent>
      <dc:title>Matplotlib v3.6.2, https://matplotlib.org/</dc:title>
     </cc:Agent>
    </dc:creator>
   </cc:Work>
  </rdf:RDF>
 </metadata>
 <defs>
  <style type="text/css">*{stroke-linejoin: round; stroke-linecap: butt}</style>
 </defs>
 <g id="figure_1">
  <g id="patch_1">
   <path d="M 0 576 
L 864 576 
L 864 0 
L 0 0 
z
" style="fill: #ffffff"/>
  </g>
  <g id="axes_1">
   <g id="patch_2">
    <path d="M 108 270.72 
L 777.6 270.72 
L 777.6 69.12 
L 108 69.12 
z
" style="fill: #ffffff"/>
   </g>
   <g id="matplotlib.axis_1">
    <g id="xtick_1">
     <g id="line2d_1">
      <defs>
       <path id="m5df55db0b3" d="M 0 0 
L 0 3.5 
" style="stroke: #000000; stroke-width: 0.8"/>
      </defs>
      <g>
       <use xlink:href="#m5df55db0b3" x="138.436364" y="270.72" style="stroke: #000000; stroke-width: 0.8"/>
      </g>
     </g>
     <g id="text_1">
      <!-- 0 -->
      <g transform="translate(135.255114 285.318437) scale(0.1 -0.1)">
       <defs>
        <path id="DejaVuSans-30" d="M 2034 4250 
Q 1547 4250 1301 3770 
Q 1056 3291 1056 2328 
Q 1056 1369 1301 889 
Q 1547 409 2034 409 
Q 2525 409 2770 889 
Q 3016 1369 3016 2328 
Q 3016 3291 2770 3770 
Q 2525 4250 2034 4250 
z
M 2034 4750 
Q 2819 4750 3233 4129 
Q 3647 3509 3647 2328 
Q 3647 1150 3233 529 
Q 2819 -91 2034 -91 
Q 1250 -91 836 529 
Q 422 1150 422 2328 
Q 422 3509 836 4129 
Q 1250 4750 2034 4750 
z
" transform="scale(0.015625)"/>
       </defs>
       <use xlink:href="#DejaVuSans-30"/>
      </g>
     </g>
    </g>
    <g id="xtick_2">
     <g id="line2d_2">
      <g>
       <use xlink:href="#m5df55db0b3" x="241.261916" y="270.72" style="stroke: #000000; stroke-width: 0.8"/>
      </g>
     </g>
     <g id="text_2">
      <!-- 50 -->
      <g transform="translate(234.899416 285.318437) scale(0.1 -0.1)">
       <defs>
        <path id="DejaVuSans-35" d="M 691 4666 
L 3169 4666 
L 3169 4134 
L 1269 4134 
L 1269 2991 
Q 1406 3038 1543 3061 
Q 1681 3084 1819 3084 
Q 2600 3084 3056 2656 
Q 3513 2228 3513 1497 
Q 3513 744 3044 326 
Q 2575 -91 1722 -91 
Q 1428 -91 1123 -41 
Q 819 9 494 109 
L 494 744 
Q 775 591 1075 516 
Q 1375 441 1709 441 
Q 2250 441 2565 725 
Q 2881 1009 2881 1497 
Q 2881 1984 2565 2268 
Q 2250 2553 1709 2553 
Q 1456 2553 1204 2497 
Q 953 2441 691 2322 
L 691 4666 
z
" transform="scale(0.015625)"/>
       </defs>
       <use xlink:href="#DejaVuSans-35"/>
       <use xlink:href="#DejaVuSans-30" x="63.623047"/>
      </g>
     </g>
    </g>
    <g id="xtick_3">
     <g id="line2d_3">
      <g>
       <use xlink:href="#m5df55db0b3" x="344.087469" y="270.72" style="stroke: #000000; stroke-width: 0.8"/>
      </g>
     </g>
     <g id="text_3">
      <!-- 100 -->
      <g transform="translate(334.543719 285.318437) scale(0.1 -0.1)">
       <defs>
        <path id="DejaVuSans-31" d="M 794 531 
L 1825 531 
L 1825 4091 
L 703 3866 
L 703 4441 
L 1819 4666 
L 2450 4666 
L 2450 531 
L 3481 531 
L 3481 0 
L 794 0 
L 794 531 
z
" transform="scale(0.015625)"/>
       </defs>
       <use xlink:href="#DejaVuSans-31"/>
       <use xlink:href="#DejaVuSans-30" x="63.623047"/>
       <use xlink:href="#DejaVuSans-30" x="127.246094"/>
      </g>
     </g>
    </g>
    <g id="xtick_4">
     <g id="line2d_4">
      <g>
       <use xlink:href="#m5df55db0b3" x="446.913022" y="270.72" style="stroke: #000000; stroke-width: 0.8"/>
      </g>
     </g>
     <g id="text_4">
      <!-- 150 -->
      <g transform="translate(437.369272 285.318437) scale(0.1 -0.1)">
       <use xlink:href="#DejaVuSans-31"/>
       <use xlink:href="#DejaVuSans-35" x="63.623047"/>
       <use xlink:href="#DejaVuSans-30" x="127.246094"/>
      </g>
     </g>
    </g>
    <g id="xtick_5">
     <g id="line2d_5">
      <g>
       <use xlink:href="#m5df55db0b3" x="549.738575" y="270.72" style="stroke: #000000; stroke-width: 0.8"/>
      </g>
     </g>
     <g id="text_5">
      <!-- 200 -->
      <g transform="translate(540.194825 285.318437) scale(0.1 -0.1)">
       <defs>
        <path id="DejaVuSans-32" d="M 1228 531 
L 3431 531 
L 3431 0 
L 469 0 
L 469 531 
Q 828 903 1448 1529 
Q 2069 2156 2228 2338 
Q 2531 2678 2651 2914 
Q 2772 3150 2772 3378 
Q 2772 3750 2511 3984 
Q 2250 4219 1831 4219 
Q 1534 4219 1204 4116 
Q 875 4013 500 3803 
L 500 4441 
Q 881 4594 1212 4672 
Q 1544 4750 1819 4750 
Q 2544 4750 2975 4387 
Q 3406 4025 3406 3419 
Q 3406 3131 3298 2873 
Q 3191 2616 2906 2266 
Q 2828 2175 2409 1742 
Q 1991 1309 1228 531 
z
" transform="scale(0.015625)"/>
       </defs>
       <use xlink:href="#DejaVuSans-32"/>
       <use xlink:href="#DejaVuSans-30" x="63.623047"/>
       <use xlink:href="#DejaVuSans-30" x="127.246094"/>
      </g>
     </g>
    </g>
    <g id="xtick_6">
     <g id="line2d_6">
      <g>
       <use xlink:href="#m5df55db0b3" x="652.564128" y="270.72" style="stroke: #000000; stroke-width: 0.8"/>
      </g>
     </g>
     <g id="text_6">
      <!-- 250 -->
      <g transform="translate(643.020378 285.318437) scale(0.1 -0.1)">
       <use xlink:href="#DejaVuSans-32"/>
       <use xlink:href="#DejaVuSans-35" x="63.623047"/>
       <use xlink:href="#DejaVuSans-30" x="127.246094"/>
      </g>
     </g>
    </g>
    <g id="xtick_7">
     <g id="line2d_7">
      <g>
       <use xlink:href="#m5df55db0b3" x="755.389681" y="270.72" style="stroke: #000000; stroke-width: 0.8"/>
      </g>
     </g>
     <g id="text_7">
      <!-- 300 -->
      <g transform="translate(745.845931 285.318437) scale(0.1 -0.1)">
       <defs>
        <path id="DejaVuSans-33" d="M 2597 2516 
Q 3050 2419 3304 2112 
Q 3559 1806 3559 1356 
Q 3559 666 3084 287 
Q 2609 -91 1734 -91 
Q 1441 -91 1130 -33 
Q 819 25 488 141 
L 488 750 
Q 750 597 1062 519 
Q 1375 441 1716 441 
Q 2309 441 2620 675 
Q 2931 909 2931 1356 
Q 2931 1769 2642 2001 
Q 2353 2234 1838 2234 
L 1294 2234 
L 1294 2753 
L 1863 2753 
Q 2328 2753 2575 2939 
Q 2822 3125 2822 3475 
Q 2822 3834 2567 4026 
Q 2313 4219 1838 4219 
Q 1578 4219 1281 4162 
Q 984 4106 628 3988 
L 628 4550 
Q 988 4650 1302 4700 
Q 1616 4750 1894 4750 
Q 2613 4750 3031 4423 
Q 3450 4097 3450 3541 
Q 3450 3153 3228 2886 
Q 3006 2619 2597 2516 
z
" transform="scale(0.015625)"/>
       </defs>
       <use xlink:href="#DejaVuSans-33"/>
       <use xlink:href="#DejaVuSans-30" x="63.623047"/>
       <use xlink:href="#DejaVuSans-30" x="127.246094"/>
      </g>
     </g>
    </g>
   </g>
   <g id="matplotlib.axis_2">
    <g id="ytick_1">
     <g id="line2d_8">
      <defs>
       <path id="mf482631688" d="M 0 0 
L -3.5 0 
" style="stroke: #000000; stroke-width: 0.8"/>
      </defs>
      <g>
       <use xlink:href="#mf482631688" x="108" y="268.101818" style="stroke: #000000; stroke-width: 0.8"/>
      </g>
     </g>
     <g id="text_8">
      <!-- −40 -->
      <g transform="translate(79.895313 271.901037) scale(0.1 -0.1)">
       <defs>
        <path id="DejaVuSans-2212" d="M 678 2272 
L 4684 2272 
L 4684 1741 
L 678 1741 
L 678 2272 
z
" transform="scale(0.015625)"/>
        <path id="DejaVuSans-34" d="M 2419 4116 
L 825 1625 
L 2419 1625 
L 2419 4116 
z
M 2253 4666 
L 3047 4666 
L 3047 1625 
L 3713 1625 
L 3713 1100 
L 3047 1100 
L 3047 0 
L 2419 0 
L 2419 1100 
L 313 1100 
L 313 1709 
L 2253 4666 
z
" transform="scale(0.015625)"/>
       </defs>
       <use xlink:href="#DejaVuSans-2212"/>
       <use xlink:href="#DejaVuSans-34" x="83.789062"/>
       <use xlink:href="#DejaVuSans-30" x="147.412109"/>
      </g>
     </g>
    </g>
    <g id="ytick_2">
     <g id="line2d_9">
      <g>
       <use xlink:href="#mf482631688" x="108" y="224.465455" style="stroke: #000000; stroke-width: 0.8"/>
      </g>
     </g>
     <g id="text_9">
      <!-- −20 -->
      <g transform="translate(79.895313 228.264673) scale(0.1 -0.1)">
       <use xlink:href="#DejaVuSans-2212"/>
       <use xlink:href="#DejaVuSans-32" x="83.789062"/>
       <use xlink:href="#DejaVuSans-30" x="147.412109"/>
      </g>
     </g>
    </g>
    <g id="ytick_3">
     <g id="line2d_10">
      <g>
       <use xlink:href="#mf482631688" x="108" y="180.829091" style="stroke: #000000; stroke-width: 0.8"/>
      </g>
     </g>
     <g id="text_10">
      <!-- 0 -->
      <g transform="translate(94.6375 184.62831) scale(0.1 -0.1)">
       <use xlink:href="#DejaVuSans-30"/>
      </g>
     </g>
    </g>
    <g id="ytick_4">
     <g id="line2d_11">
      <g>
       <use xlink:href="#mf482631688" x="108" y="137.192727" style="stroke: #000000; stroke-width: 0.8"/>
      </g>
     </g>
     <g id="text_11">
      <!-- 20 -->
      <g transform="translate(88.275 140.991946) scale(0.1 -0.1)">
       <use xlink:href="#DejaVuSans-32"/>
       <use xlink:href="#DejaVuSans-30" x="63.623047"/>
      </g>
     </g>
    </g>
    <g id="ytick_5">
     <g id="line2d_12">
      <g>
       <use xlink:href="#mf482631688" x="108" y="93.556364" style="stroke: #000000; stroke-width: 0.8"/>
      </g>
     </g>
     <g id="text_12">
      <!-- 40 -->
      <g transform="translate(88.275 97.355582) scale(0.1 -0.1)">
       <use xlink:href="#DejaVuSans-34"/>
       <use xlink:href="#DejaVuSans-30" x="63.623047"/>
      </g>
     </g>
    </g>
   </g>
   <g id="line2d_13">
    <path d="M 138.436364 176.465455 
L 140.492875 167.738182 
L 142.549386 198.283636 
L 144.605897 161.192727 
L 146.662408 200.465455 
L 148.718919 176.465455 
L 150.77543 154.647273 
L 152.831941 178.647273 
L 154.888452 191.738182 
L 156.944963 189.556364 
L 159.001474 174.283636 
L 161.057985 169.92 
L 163.114496 202.647273 
L 165.171007 180.829091 
L 167.227518 174.283636 
L 169.284029 193.92 
L 171.340541 159.010909 
L 173.397052 185.192727 
L 175.453563 259.374545 
L 177.510074 78.283636 
L 179.566585 204.829091 
L 183.679607 178.647273 
L 185.736118 163.374545 
L 187.792629 200.465455 
L 189.84914 185.192727 
L 191.905651 187.374545 
L 193.962162 180.829091 
L 196.018673 159.010909 
L 198.075184 148.101818 
L 200.131695 224.465455 
L 202.188206 178.647273 
L 204.244717 167.738182 
L 206.301229 204.829091 
L 208.35774 172.101818 
L 210.414251 185.192727 
L 212.470762 163.374545 
L 214.527273 178.647273 
L 216.583784 191.738182 
L 218.640295 191.738182 
L 220.696806 161.192727 
L 222.753317 196.101818 
L 224.809828 156.829091 
L 226.866339 209.192727 
L 228.92285 180.829091 
L 230.979361 172.101818 
L 233.035872 167.738182 
L 235.092383 187.374545 
L 237.148894 215.738182 
L 239.205405 139.374545 
L 241.261916 200.465455 
L 243.318428 150.283636 
L 245.374939 198.283636 
L 247.43145 172.101818 
L 249.487961 196.101818 
L 251.544472 176.465455 
L 253.600983 189.556364 
L 255.657494 167.738182 
L 257.714005 152.465455 
L 259.770516 204.829091 
L 261.827027 185.192727 
L 263.883538 185.192727 
L 265.940049 165.556364 
L 267.99656 196.101818 
L 270.053071 178.647273 
L 272.109582 204.829091 
L 274.166093 137.192727 
L 276.222604 211.374545 
L 278.279115 143.738182 
L 280.335627 220.101818 
L 282.392138 161.192727 
L 284.448649 156.829091 
L 286.50516 224.465455 
L 288.561671 178.647273 
L 290.618182 176.465455 
L 292.674693 185.192727 
L 294.731204 176.465455 
L 296.787715 172.101818 
L 298.844226 178.647273 
L 300.900737 207.010909 
L 302.957248 156.829091 
L 305.013759 202.647273 
L 307.07027 161.192727 
L 309.126781 202.647273 
L 311.183292 150.283636 
L 313.239803 193.92 
L 315.296314 189.556364 
L 317.352826 165.556364 
L 319.409337 202.647273 
L 321.465848 143.738182 
L 323.522359 185.192727 
L 325.57887 191.738182 
L 327.635381 185.192727 
L 329.691892 204.829091 
L 331.748403 143.738182 
L 333.804914 209.192727 
L 335.861425 152.465455 
L 337.917936 213.556364 
L 339.974447 174.283636 
L 342.030958 178.647273 
L 344.087469 174.283636 
L 346.14398 156.829091 
L 348.200491 204.829091 
L 350.257002 202.647273 
L 352.313514 139.374545 
L 354.370025 204.829091 
L 356.426536 165.556364 
L 358.483047 178.647273 
L 360.539558 202.647273 
L 362.596069 163.374545 
L 364.65258 198.283636 
L 366.709091 141.556364 
L 368.765602 228.829091 
L 370.822113 167.738182 
L 372.878624 161.192727 
L 374.935135 185.192727 
L 376.991646 176.465455 
L 379.048157 213.556364 
L 381.104668 152.465455 
L 383.161179 169.92 
L 385.21769 220.101818 
L 387.274201 150.283636 
L 389.330713 204.829091 
L 391.387224 150.283636 
L 393.443735 183.010909 
L 395.500246 204.829091 
L 397.556757 165.556364 
L 399.613268 224.465455 
L 401.669779 117.556364 
L 403.72629 213.556364 
L 405.782801 161.192727 
L 407.839312 193.92 
L 409.895823 156.829091 
L 411.952334 187.374545 
L 414.008845 207.010909 
L 416.065356 139.374545 
L 418.121867 200.465455 
L 420.178378 193.92 
L 422.234889 178.647273 
L 424.2914 154.647273 
L 426.347912 200.465455 
L 428.404423 167.738182 
L 430.460934 196.101818 
L 432.517445 185.192727 
L 434.573956 191.738182 
L 436.630467 174.283636 
L 438.686978 187.374545 
L 440.743489 180.829091 
L 442.8 165.556364 
L 444.856511 200.465455 
L 446.913022 141.556364 
L 448.969533 209.192727 
L 451.026044 196.101818 
L 453.082555 167.738182 
L 455.139066 189.556364 
L 457.195577 169.92 
L 459.252088 178.647273 
L 461.3086 156.829091 
L 463.365111 211.374545 
L 465.421622 183.010909 
L 467.478133 169.92 
L 469.534644 169.92 
L 471.591155 176.465455 
L 473.647666 215.738182 
L 475.704177 148.101818 
L 477.760688 209.192727 
L 479.817199 161.192727 
L 481.87371 193.92 
L 483.930221 183.010909 
L 485.986732 165.556364 
L 488.043243 172.101818 
L 490.099754 156.829091 
L 492.156265 220.101818 
L 494.212776 174.283636 
L 496.269287 189.556364 
L 498.325799 189.556364 
L 500.38231 165.556364 
L 502.438821 187.374545 
L 504.495332 196.101818 
L 506.551843 163.374545 
L 508.608354 185.192727 
L 510.664865 152.465455 
L 512.721376 220.101818 
L 514.777887 141.556364 
L 516.834398 209.192727 
L 518.890909 156.829091 
L 520.94742 207.010909 
L 523.003931 183.010909 
L 525.060442 167.738182 
L 527.116953 176.465455 
L 529.173464 174.283636 
L 531.229975 207.010909 
L 533.286486 161.192727 
L 535.342998 174.283636 
L 537.399509 176.465455 
L 539.45602 224.465455 
L 541.512531 130.647273 
L 543.569042 200.465455 
L 545.625553 187.374545 
L 547.682064 191.738182 
L 549.738575 161.192727 
L 551.795086 191.738182 
L 553.851597 180.829091 
L 555.908108 148.101818 
L 557.964619 233.192727 
L 560.02113 152.465455 
L 562.077641 200.465455 
L 564.134152 178.647273 
L 566.190663 167.738182 
L 568.247174 172.101818 
L 570.303686 196.101818 
L 572.360197 156.829091 
L 574.416708 176.465455 
L 576.473219 204.829091 
L 578.52973 169.92 
L 580.586241 191.738182 
L 582.642752 176.465455 
L 584.699263 193.92 
L 586.755774 159.010909 
L 588.812285 196.101818 
L 590.868796 180.829091 
L 592.925307 172.101818 
L 594.981818 198.283636 
L 597.038329 180.829091 
L 599.09484 141.556364 
L 601.151351 209.192727 
L 603.207862 143.738182 
L 605.264373 261.556364 
L 607.320885 124.101818 
L 609.377396 209.192727 
L 611.433907 161.192727 
L 613.490418 185.192727 
L 615.546929 191.738182 
L 617.60344 159.010909 
L 619.659951 191.738182 
L 621.716462 145.92 
L 623.772973 215.738182 
L 625.829484 187.374545 
L 627.885995 178.647273 
L 629.942506 198.283636 
L 631.999017 135.010909 
L 634.055528 180.829091 
L 636.112039 198.283636 
L 638.16855 191.738182 
L 640.225061 187.374545 
L 642.281572 159.010909 
L 644.338084 209.192727 
L 646.394595 154.647273 
L 648.451106 204.829091 
L 650.507617 145.92 
L 652.564128 213.556364 
L 654.620639 169.92 
L 656.67715 148.101818 
L 658.733661 211.374545 
L 660.790172 187.374545 
L 662.846683 178.647273 
L 664.903194 183.010909 
L 666.959705 183.010909 
L 669.016216 167.738182 
L 671.072727 248.465455 
L 673.129238 108.829091 
L 675.185749 213.556364 
L 677.24226 137.192727 
L 679.298771 207.010909 
L 681.355283 180.829091 
L 683.411794 180.829091 
L 685.468305 159.010909 
L 687.524816 163.374545 
L 689.581327 193.92 
L 691.637838 207.010909 
L 693.694349 156.829091 
L 695.75086 191.738182 
L 697.807371 193.92 
L 699.863882 130.647273 
L 701.920393 244.101818 
L 703.976904 143.738182 
L 706.033415 191.738182 
L 708.089926 198.283636 
L 710.146437 176.465455 
L 712.202948 183.010909 
L 714.259459 174.283636 
L 716.315971 176.465455 
L 718.372482 224.465455 
L 720.428993 130.647273 
L 722.485504 176.465455 
L 724.542015 176.465455 
L 726.598526 196.101818 
L 728.655037 167.738182 
L 730.711548 193.92 
L 732.768059 185.192727 
L 736.881081 185.192727 
L 738.937592 161.192727 
L 740.994103 200.465455 
L 743.050614 169.92 
L 745.107125 187.374545 
L 747.163636 172.101818 
L 747.163636 172.101818 
" clip-path="url(#p08bb979ed8)" style="fill: none; stroke: #1f77b4; stroke-width: 1.5; stroke-linecap: square"/>
   </g>
   <g id="patch_3">
    <path d="M 108 270.72 
L 108 69.12 
" style="fill: none; stroke: #000000; stroke-width: 0.8; stroke-linejoin: miter; stroke-linecap: square"/>
   </g>
   <g id="patch_4">
    <path d="M 777.6 270.72 
L 777.6 69.12 
" style="fill: none; stroke: #000000; stroke-width: 0.8; stroke-linejoin: miter; stroke-linecap: square"/>
   </g>
   <g id="patch_5">
    <path d="M 108 270.72 
L 777.6 270.72 
" style="fill: none; stroke: #000000; stroke-width: 0.8; stroke-linejoin: miter; stroke-linecap: square"/>
   </g>
   <g id="patch_6">
    <path d="M 108 69.12 
L 777.6 69.12 
" style="fill: none; stroke: #000000; stroke-width: 0.8; stroke-linejoin: miter; stroke-linecap: square"/>
   </g>
  </g>
  <g id="axes_2">
   <g id="patch_7">
    <path d="M 108 512.64 
L 412.363636 512.64 
L 412.363636 311.04 
L 108 311.04 
z
" style="fill: #ffffff"/>
   </g>
   <g id="PolyCollection_1">
    <path d="M 121.834711 400.376153 
L 121.834711 423.303847 
L 163.338843 427.357475 
L 191.008264 427.791285 
L 218.677686 427.906734 
L 246.347107 427.906885 
L 274.016529 427.998762 
L 301.68595 428.134268 
L 329.355372 428.244217 
L 357.024793 428.40258 
L 398.528926 428.502812 
L 398.528926 395.177188 
L 398.528926 395.177188 
L 357.024793 395.27742 
L 329.355372 395.435783 
L 301.68595 395.545732 
L 274.016529 395.681238 
L 246.347107 395.773115 
L 218.677686 395.773266 
L 191.008264 395.888715 
L 163.338843 396.322525 
L 121.834711 400.376153 
z
" clip-path="url(#pb59f33ec22)" style="fill: #1f77b4; fill-opacity: 0.25"/>
   </g>
   <g id="matplotlib.axis_3">
    <g id="xtick_8">
     <g id="line2d_14">
      <g>
       <use xlink:href="#m5df55db0b3" x="108" y="512.64" style="stroke: #000000; stroke-width: 0.8"/>
      </g>
     </g>
     <g id="text_13">
      <!-- 0 -->
      <g transform="translate(104.81875 527.238438) scale(0.1 -0.1)">
       <use xlink:href="#DejaVuSans-30"/>
      </g>
     </g>
    </g>
    <g id="xtick_9">
     <g id="line2d_15">
      <g>
       <use xlink:href="#m5df55db0b3" x="163.338843" y="512.64" style="stroke: #000000; stroke-width: 0.8"/>
      </g>
     </g>
     <g id="text_14">
      <!-- 2 -->
      <g transform="translate(160.157593 527.238438) scale(0.1 -0.1)">
       <use xlink:href="#DejaVuSans-32"/>
      </g>
     </g>
    </g>
    <g id="xtick_10">
     <g id="line2d_16">
      <g>
       <use xlink:href="#m5df55db0b3" x="218.677686" y="512.64" style="stroke: #000000; stroke-width: 0.8"/>
      </g>
     </g>
     <g id="text_15">
      <!-- 4 -->
      <g transform="translate(215.496436 527.238438) scale(0.1 -0.1)">
       <use xlink:href="#DejaVuSans-34"/>
      </g>
     </g>
    </g>
    <g id="xtick_11">
     <g id="line2d_17">
      <g>
       <use xlink:href="#m5df55db0b3" x="274.016529" y="512.64" style="stroke: #000000; stroke-width: 0.8"/>
      </g>
     </g>
     <g id="text_16">
      <!-- 6 -->
      <g transform="translate(270.835279 527.238438) scale(0.1 -0.1)">
       <defs>
        <path id="DejaVuSans-36" d="M 2113 2584 
Q 1688 2584 1439 2293 
Q 1191 2003 1191 1497 
Q 1191 994 1439 701 
Q 1688 409 2113 409 
Q 2538 409 2786 701 
Q 3034 994 3034 1497 
Q 3034 2003 2786 2293 
Q 2538 2584 2113 2584 
z
M 3366 4563 
L 3366 3988 
Q 3128 4100 2886 4159 
Q 2644 4219 2406 4219 
Q 1781 4219 1451 3797 
Q 1122 3375 1075 2522 
Q 1259 2794 1537 2939 
Q 1816 3084 2150 3084 
Q 2853 3084 3261 2657 
Q 3669 2231 3669 1497 
Q 3669 778 3244 343 
Q 2819 -91 2113 -91 
Q 1303 -91 875 529 
Q 447 1150 447 2328 
Q 447 3434 972 4092 
Q 1497 4750 2381 4750 
Q 2619 4750 2861 4703 
Q 3103 4656 3366 4563 
z
" transform="scale(0.015625)"/>
       </defs>
       <use xlink:href="#DejaVuSans-36"/>
      </g>
     </g>
    </g>
    <g id="xtick_12">
     <g id="line2d_18">
      <g>
       <use xlink:href="#m5df55db0b3" x="329.355372" y="512.64" style="stroke: #000000; stroke-width: 0.8"/>
      </g>
     </g>
     <g id="text_17">
      <!-- 8 -->
      <g transform="translate(326.174122 527.238438) scale(0.1 -0.1)">
       <defs>
        <path id="DejaVuSans-38" d="M 2034 2216 
Q 1584 2216 1326 1975 
Q 1069 1734 1069 1313 
Q 1069 891 1326 650 
Q 1584 409 2034 409 
Q 2484 409 2743 651 
Q 3003 894 3003 1313 
Q 3003 1734 2745 1975 
Q 2488 2216 2034 2216 
z
M 1403 2484 
Q 997 2584 770 2862 
Q 544 3141 544 3541 
Q 544 4100 942 4425 
Q 1341 4750 2034 4750 
Q 2731 4750 3128 4425 
Q 3525 4100 3525 3541 
Q 3525 3141 3298 2862 
Q 3072 2584 2669 2484 
Q 3125 2378 3379 2068 
Q 3634 1759 3634 1313 
Q 3634 634 3220 271 
Q 2806 -91 2034 -91 
Q 1263 -91 848 271 
Q 434 634 434 1313 
Q 434 1759 690 2068 
Q 947 2378 1403 2484 
z
M 1172 3481 
Q 1172 3119 1398 2916 
Q 1625 2713 2034 2713 
Q 2441 2713 2670 2916 
Q 2900 3119 2900 3481 
Q 2900 3844 2670 4047 
Q 2441 4250 2034 4250 
Q 1625 4250 1398 4047 
Q 1172 3844 1172 3481 
z
" transform="scale(0.015625)"/>
       </defs>
       <use xlink:href="#DejaVuSans-38"/>
      </g>
     </g>
    </g>
    <g id="xtick_13">
     <g id="line2d_19">
      <g>
       <use xlink:href="#m5df55db0b3" x="384.694215" y="512.64" style="stroke: #000000; stroke-width: 0.8"/>
      </g>
     </g>
     <g id="text_18">
      <!-- 10 -->
      <g transform="translate(378.331715 527.238438) scale(0.1 -0.1)">
       <use xlink:href="#DejaVuSans-31"/>
       <use xlink:href="#DejaVuSans-30" x="63.623047"/>
      </g>
     </g>
    </g>
   </g>
   <g id="matplotlib.axis_4">
    <g id="ytick_6">
     <g id="line2d_20">
      <g>
       <use xlink:href="#mf482631688" x="108" y="512.64" style="stroke: #000000; stroke-width: 0.8"/>
      </g>
     </g>
     <g id="text_19">
      <!-- −1.00 -->
      <g transform="translate(70.354687 516.439219) scale(0.1 -0.1)">
       <defs>
        <path id="DejaVuSans-2e" d="M 684 794 
L 1344 794 
L 1344 0 
L 684 0 
L 684 794 
z
" transform="scale(0.015625)"/>
       </defs>
       <use xlink:href="#DejaVuSans-2212"/>
       <use xlink:href="#DejaVuSans-31" x="83.789062"/>
       <use xlink:href="#DejaVuSans-2e" x="147.412109"/>
       <use xlink:href="#DejaVuSans-30" x="179.199219"/>
       <use xlink:href="#DejaVuSans-30" x="242.822266"/>
      </g>
     </g>
    </g>
    <g id="ytick_7">
     <g id="line2d_21">
      <g>
       <use xlink:href="#mf482631688" x="108" y="487.44" style="stroke: #000000; stroke-width: 0.8"/>
      </g>
     </g>
     <g id="text_20">
      <!-- −0.75 -->
      <g transform="translate(70.354687 491.239219) scale(0.1 -0.1)">
       <defs>
        <path id="DejaVuSans-37" d="M 525 4666 
L 3525 4666 
L 3525 4397 
L 1831 0 
L 1172 0 
L 2766 4134 
L 525 4134 
L 525 4666 
z
" transform="scale(0.015625)"/>
       </defs>
       <use xlink:href="#DejaVuSans-2212"/>
       <use xlink:href="#DejaVuSans-30" x="83.789062"/>
       <use xlink:href="#DejaVuSans-2e" x="147.412109"/>
       <use xlink:href="#DejaVuSans-37" x="179.199219"/>
       <use xlink:href="#DejaVuSans-35" x="242.822266"/>
      </g>
     </g>
    </g>
    <g id="ytick_8">
     <g id="line2d_22">
      <g>
       <use xlink:href="#mf482631688" x="108" y="462.24" style="stroke: #000000; stroke-width: 0.8"/>
      </g>
     </g>
     <g id="text_21">
      <!-- −0.50 -->
      <g transform="translate(70.354687 466.039219) scale(0.1 -0.1)">
       <use xlink:href="#DejaVuSans-2212"/>
       <use xlink:href="#DejaVuSans-30" x="83.789062"/>
       <use xlink:href="#DejaVuSans-2e" x="147.412109"/>
       <use xlink:href="#DejaVuSans-35" x="179.199219"/>
       <use xlink:href="#DejaVuSans-30" x="242.822266"/>
      </g>
     </g>
    </g>
    <g id="ytick_9">
     <g id="line2d_23">
      <g>
       <use xlink:href="#mf482631688" x="108" y="437.04" style="stroke: #000000; stroke-width: 0.8"/>
      </g>
     </g>
     <g id="text_22">
      <!-- −0.25 -->
      <g transform="translate(70.354687 440.839219) scale(0.1 -0.1)">
       <use xlink:href="#DejaVuSans-2212"/>
       <use xlink:href="#DejaVuSans-30" x="83.789062"/>
       <use xlink:href="#DejaVuSans-2e" x="147.412109"/>
       <use xlink:href="#DejaVuSans-32" x="179.199219"/>
       <use xlink:href="#DejaVuSans-35" x="242.822266"/>
      </g>
     </g>
    </g>
    <g id="ytick_10">
     <g id="line2d_24">
      <g>
       <use xlink:href="#mf482631688" x="108" y="411.84" style="stroke: #000000; stroke-width: 0.8"/>
      </g>
     </g>
     <g id="text_23">
      <!-- 0.00 -->
      <g transform="translate(78.734375 415.639219) scale(0.1 -0.1)">
       <use xlink:href="#DejaVuSans-30"/>
       <use xlink:href="#DejaVuSans-2e" x="63.623047"/>
       <use xlink:href="#DejaVuSans-30" x="95.410156"/>
       <use xlink:href="#DejaVuSans-30" x="159.033203"/>
      </g>
     </g>
    </g>
    <g id="ytick_11">
     <g id="line2d_25">
      <g>
       <use xlink:href="#mf482631688" x="108" y="386.64" style="stroke: #000000; stroke-width: 0.8"/>
      </g>
     </g>
     <g id="text_24">
      <!-- 0.25 -->
      <g transform="translate(78.734375 390.439219) scale(0.1 -0.1)">
       <use xlink:href="#DejaVuSans-30"/>
       <use xlink:href="#DejaVuSans-2e" x="63.623047"/>
       <use xlink:href="#DejaVuSans-32" x="95.410156"/>
       <use xlink:href="#DejaVuSans-35" x="159.033203"/>
      </g>
     </g>
    </g>
    <g id="ytick_12">
     <g id="line2d_26">
      <g>
       <use xlink:href="#mf482631688" x="108" y="361.44" style="stroke: #000000; stroke-width: 0.8"/>
      </g>
     </g>
     <g id="text_25">
      <!-- 0.50 -->
      <g transform="translate(78.734375 365.239219) scale(0.1 -0.1)">
       <use xlink:href="#DejaVuSans-30"/>
       <use xlink:href="#DejaVuSans-2e" x="63.623047"/>
       <use xlink:href="#DejaVuSans-35" x="95.410156"/>
       <use xlink:href="#DejaVuSans-30" x="159.033203"/>
      </g>
     </g>
    </g>
    <g id="ytick_13">
     <g id="line2d_27">
      <g>
       <use xlink:href="#mf482631688" x="108" y="336.24" style="stroke: #000000; stroke-width: 0.8"/>
      </g>
     </g>
     <g id="text_26">
      <!-- 0.75 -->
      <g transform="translate(78.734375 340.039219) scale(0.1 -0.1)">
       <use xlink:href="#DejaVuSans-30"/>
       <use xlink:href="#DejaVuSans-2e" x="63.623047"/>
       <use xlink:href="#DejaVuSans-37" x="95.410156"/>
       <use xlink:href="#DejaVuSans-35" x="159.033203"/>
      </g>
     </g>
    </g>
    <g id="ytick_14">
     <g id="line2d_28">
      <g>
       <use xlink:href="#mf482631688" x="108" y="311.04" style="stroke: #000000; stroke-width: 0.8"/>
      </g>
     </g>
     <g id="text_27">
      <!-- 1.00 -->
      <g transform="translate(78.734375 314.839219) scale(0.1 -0.1)">
       <use xlink:href="#DejaVuSans-31"/>
       <use xlink:href="#DejaVuSans-2e" x="63.623047"/>
       <use xlink:href="#DejaVuSans-30" x="95.410156"/>
       <use xlink:href="#DejaVuSans-30" x="159.033203"/>
      </g>
     </g>
    </g>
   </g>
   <g id="LineCollection_1">
    <path d="M 135.669421 411.84 
L 135.669421 476.863254 
" clip-path="url(#pb59f33ec22)" style="fill: none; stroke: #1f77b4; stroke-width: 1.5"/>
    <path d="M 163.338843 411.84 
L 163.338843 388.867708 
" clip-path="url(#pb59f33ec22)" style="fill: none; stroke: #1f77b4; stroke-width: 1.5"/>
    <path d="M 191.008264 411.84 
L 191.008264 423.793837 
" clip-path="url(#pb59f33ec22)" style="fill: none; stroke: #1f77b4; stroke-width: 1.5"/>
    <path d="M 218.677686 411.84 
L 218.677686 411.406275 
" clip-path="url(#pb59f33ec22)" style="fill: none; stroke: #1f77b4; stroke-width: 1.5"/>
    <path d="M 246.347107 411.84 
L 246.347107 401.141597 
" clip-path="url(#pb59f33ec22)" style="fill: none; stroke: #1f77b4; stroke-width: 1.5"/>
    <path d="M 274.016529 411.84 
L 274.016529 424.87833 
" clip-path="url(#pb59f33ec22)" style="fill: none; stroke: #1f77b4; stroke-width: 1.5"/>
    <path d="M 301.68595 411.84 
L 301.68595 400.051051 
" clip-path="url(#pb59f33ec22)" style="fill: none; stroke: #1f77b4; stroke-width: 1.5"/>
    <path d="M 329.355372 411.84 
L 329.355372 426.046293 
" clip-path="url(#pb59f33ec22)" style="fill: none; stroke: #1f77b4; stroke-width: 1.5"/>
    <path d="M 357.024793 411.84 
L 357.024793 400.49375 
" clip-path="url(#pb59f33ec22)" style="fill: none; stroke: #1f77b4; stroke-width: 1.5"/>
    <path d="M 384.694215 411.84 
L 384.694215 412.008175 
" clip-path="url(#pb59f33ec22)" style="fill: none; stroke: #1f77b4; stroke-width: 1.5"/>
   </g>
   <g id="line2d_29">
    <path d="M 108 411.84 
L 412.363636 411.84 
" clip-path="url(#pb59f33ec22)" style="fill: none; stroke: #1f77b4; stroke-width: 1.5; stroke-linecap: square"/>
   </g>
   <g id="line2d_30">
    <defs>
     <path id="m95cd7cf86a" d="M 0 2.5 
C 0.663008 2.5 1.29895 2.236584 1.767767 1.767767 
C 2.236584 1.29895 2.5 0.663008 2.5 0 
C 2.5 -0.663008 2.236584 -1.29895 1.767767 -1.767767 
C 1.29895 -2.236584 0.663008 -2.5 0 -2.5 
C -0.663008 -2.5 -1.29895 -2.236584 -1.767767 -1.767767 
C -2.236584 -1.29895 -2.5 -0.663008 -2.5 0 
C -2.5 0.663008 -2.236584 1.29895 -1.767767 1.767767 
C -1.29895 2.236584 -0.663008 2.5 0 2.5 
z
" style="stroke: #1f77b4"/>
    </defs>
    <g clip-path="url(#pb59f33ec22)">
     <use xlink:href="#m95cd7cf86a" x="135.669421" y="476.863254" style="fill: #1f77b4; stroke: #1f77b4"/>
     <use xlink:href="#m95cd7cf86a" x="163.338843" y="388.867708" style="fill: #1f77b4; stroke: #1f77b4"/>
     <use xlink:href="#m95cd7cf86a" x="191.008264" y="423.793837" style="fill: #1f77b4; stroke: #1f77b4"/>
     <use xlink:href="#m95cd7cf86a" x="218.677686" y="411.406275" style="fill: #1f77b4; stroke: #1f77b4"/>
     <use xlink:href="#m95cd7cf86a" x="246.347107" y="401.141597" style="fill: #1f77b4; stroke: #1f77b4"/>
     <use xlink:href="#m95cd7cf86a" x="274.016529" y="424.87833" style="fill: #1f77b4; stroke: #1f77b4"/>
     <use xlink:href="#m95cd7cf86a" x="301.68595" y="400.051051" style="fill: #1f77b4; stroke: #1f77b4"/>
     <use xlink:href="#m95cd7cf86a" x="329.355372" y="426.046293" style="fill: #1f77b4; stroke: #1f77b4"/>
     <use xlink:href="#m95cd7cf86a" x="357.024793" y="400.49375" style="fill: #1f77b4; stroke: #1f77b4"/>
     <use xlink:href="#m95cd7cf86a" x="384.694215" y="412.008175" style="fill: #1f77b4; stroke: #1f77b4"/>
    </g>
   </g>
   <g id="patch_8">
    <path d="M 108 512.64 
L 108 311.04 
" style="fill: none; stroke: #000000; stroke-width: 0.8; stroke-linejoin: miter; stroke-linecap: square"/>
   </g>
   <g id="patch_9">
    <path d="M 412.363636 512.64 
L 412.363636 311.04 
" style="fill: none; stroke: #000000; stroke-width: 0.8; stroke-linejoin: miter; stroke-linecap: square"/>
   </g>
   <g id="patch_10">
    <path d="M 108 512.64 
L 412.363636 512.64 
" style="fill: none; stroke: #000000; stroke-width: 0.8; stroke-linejoin: miter; stroke-linecap: square"/>
   </g>
   <g id="patch_11">
    <path d="M 108 311.04 
L 412.363636 311.04 
" style="fill: none; stroke: #000000; stroke-width: 0.8; stroke-linejoin: miter; stroke-linecap: square"/>
   </g>
   <g id="text_28">
    <!-- Autocorrelation -->
    <g transform="translate(214.059631 305.04) scale(0.12 -0.12)">
     <defs>
      <path id="DejaVuSans-41" d="M 2188 4044 
L 1331 1722 
L 3047 1722 
L 2188 4044 
z
M 1831 4666 
L 2547 4666 
L 4325 0 
L 3669 0 
L 3244 1197 
L 1141 1197 
L 716 0 
L 50 0 
L 1831 4666 
z
" transform="scale(0.015625)"/>
      <path id="DejaVuSans-75" d="M 544 1381 
L 544 3500 
L 1119 3500 
L 1119 1403 
Q 1119 906 1312 657 
Q 1506 409 1894 409 
Q 2359 409 2629 706 
Q 2900 1003 2900 1516 
L 2900 3500 
L 3475 3500 
L 3475 0 
L 2900 0 
L 2900 538 
Q 2691 219 2414 64 
Q 2138 -91 1772 -91 
Q 1169 -91 856 284 
Q 544 659 544 1381 
z
M 1991 3584 
L 1991 3584 
z
" transform="scale(0.015625)"/>
      <path id="DejaVuSans-74" d="M 1172 4494 
L 1172 3500 
L 2356 3500 
L 2356 3053 
L 1172 3053 
L 1172 1153 
Q 1172 725 1289 603 
Q 1406 481 1766 481 
L 2356 481 
L 2356 0 
L 1766 0 
Q 1100 0 847 248 
Q 594 497 594 1153 
L 594 3053 
L 172 3053 
L 172 3500 
L 594 3500 
L 594 4494 
L 1172 4494 
z
" transform="scale(0.015625)"/>
      <path id="DejaVuSans-6f" d="M 1959 3097 
Q 1497 3097 1228 2736 
Q 959 2375 959 1747 
Q 959 1119 1226 758 
Q 1494 397 1959 397 
Q 2419 397 2687 759 
Q 2956 1122 2956 1747 
Q 2956 2369 2687 2733 
Q 2419 3097 1959 3097 
z
M 1959 3584 
Q 2709 3584 3137 3096 
Q 3566 2609 3566 1747 
Q 3566 888 3137 398 
Q 2709 -91 1959 -91 
Q 1206 -91 779 398 
Q 353 888 353 1747 
Q 353 2609 779 3096 
Q 1206 3584 1959 3584 
z
" transform="scale(0.015625)"/>
      <path id="DejaVuSans-63" d="M 3122 3366 
L 3122 2828 
Q 2878 2963 2633 3030 
Q 2388 3097 2138 3097 
Q 1578 3097 1268 2742 
Q 959 2388 959 1747 
Q 959 1106 1268 751 
Q 1578 397 2138 397 
Q 2388 397 2633 464 
Q 2878 531 3122 666 
L 3122 134 
Q 2881 22 2623 -34 
Q 2366 -91 2075 -91 
Q 1284 -91 818 406 
Q 353 903 353 1747 
Q 353 2603 823 3093 
Q 1294 3584 2113 3584 
Q 2378 3584 2631 3529 
Q 2884 3475 3122 3366 
z
" transform="scale(0.015625)"/>
      <path id="DejaVuSans-72" d="M 2631 2963 
Q 2534 3019 2420 3045 
Q 2306 3072 2169 3072 
Q 1681 3072 1420 2755 
Q 1159 2438 1159 1844 
L 1159 0 
L 581 0 
L 581 3500 
L 1159 3500 
L 1159 2956 
Q 1341 3275 1631 3429 
Q 1922 3584 2338 3584 
Q 2397 3584 2469 3576 
Q 2541 3569 2628 3553 
L 2631 2963 
z
" transform="scale(0.015625)"/>
      <path id="DejaVuSans-65" d="M 3597 1894 
L 3597 1613 
L 953 1613 
Q 991 1019 1311 708 
Q 1631 397 2203 397 
Q 2534 397 2845 478 
Q 3156 559 3463 722 
L 3463 178 
Q 3153 47 2828 -22 
Q 2503 -91 2169 -91 
Q 1331 -91 842 396 
Q 353 884 353 1716 
Q 353 2575 817 3079 
Q 1281 3584 2069 3584 
Q 2775 3584 3186 3129 
Q 3597 2675 3597 1894 
z
M 3022 2063 
Q 3016 2534 2758 2815 
Q 2500 3097 2075 3097 
Q 1594 3097 1305 2825 
Q 1016 2553 972 2059 
L 3022 2063 
z
" transform="scale(0.015625)"/>
      <path id="DejaVuSans-6c" d="M 603 4863 
L 1178 4863 
L 1178 0 
L 603 0 
L 603 4863 
z
" transform="scale(0.015625)"/>
      <path id="DejaVuSans-61" d="M 2194 1759 
Q 1497 1759 1228 1600 
Q 959 1441 959 1056 
Q 959 750 1161 570 
Q 1363 391 1709 391 
Q 2188 391 2477 730 
Q 2766 1069 2766 1631 
L 2766 1759 
L 2194 1759 
z
M 3341 1997 
L 3341 0 
L 2766 0 
L 2766 531 
Q 2569 213 2275 61 
Q 1981 -91 1556 -91 
Q 1019 -91 701 211 
Q 384 513 384 1019 
Q 384 1609 779 1909 
Q 1175 2209 1959 2209 
L 2766 2209 
L 2766 2266 
Q 2766 2663 2505 2880 
Q 2244 3097 1772 3097 
Q 1472 3097 1187 3025 
Q 903 2953 641 2809 
L 641 3341 
Q 956 3463 1253 3523 
Q 1550 3584 1831 3584 
Q 2591 3584 2966 3190 
Q 3341 2797 3341 1997 
z
" transform="scale(0.015625)"/>
      <path id="DejaVuSans-69" d="M 603 3500 
L 1178 3500 
L 1178 0 
L 603 0 
L 603 3500 
z
M 603 4863 
L 1178 4863 
L 1178 4134 
L 603 4134 
L 603 4863 
z
" transform="scale(0.015625)"/>
      <path id="DejaVuSans-6e" d="M 3513 2113 
L 3513 0 
L 2938 0 
L 2938 2094 
Q 2938 2591 2744 2837 
Q 2550 3084 2163 3084 
Q 1697 3084 1428 2787 
Q 1159 2491 1159 1978 
L 1159 0 
L 581 0 
L 581 3500 
L 1159 3500 
L 1159 2956 
Q 1366 3272 1645 3428 
Q 1925 3584 2291 3584 
Q 2894 3584 3203 3211 
Q 3513 2838 3513 2113 
z
" transform="scale(0.015625)"/>
     </defs>
     <use xlink:href="#DejaVuSans-41"/>
     <use xlink:href="#DejaVuSans-75" x="68.408203"/>
     <use xlink:href="#DejaVuSans-74" x="131.787109"/>
     <use xlink:href="#DejaVuSans-6f" x="170.996094"/>
     <use xlink:href="#DejaVuSans-63" x="232.177734"/>
     <use xlink:href="#DejaVuSans-6f" x="287.158203"/>
     <use xlink:href="#DejaVuSans-72" x="348.339844"/>
     <use xlink:href="#DejaVuSans-72" x="387.703125"/>
     <use xlink:href="#DejaVuSans-65" x="426.566406"/>
     <use xlink:href="#DejaVuSans-6c" x="488.089844"/>
     <use xlink:href="#DejaVuSans-61" x="515.873047"/>
     <use xlink:href="#DejaVuSans-74" x="577.152344"/>
     <use xlink:href="#DejaVuSans-69" x="616.361328"/>
     <use xlink:href="#DejaVuSans-6f" x="644.144531"/>
     <use xlink:href="#DejaVuSans-6e" x="705.326172"/>
    </g>
   </g>
  </g>
  <g id="axes_3">
   <g id="patch_12">
    <path d="M 473.236364 512.64 
L 777.6 512.64 
L 777.6 311.04 
L 473.236364 311.04 
z
" style="fill: #ffffff"/>
   </g>
   <g id="PolyCollection_2">
    <path d="M 487.071074 400.376153 
L 487.071074 423.303847 
L 528.575207 423.303847 
L 556.244628 423.303847 
L 583.91405 423.303847 
L 611.583471 423.303847 
L 639.252893 423.303847 
L 666.922314 423.303847 
L 694.591736 423.303847 
L 722.261157 423.303847 
L 763.765289 423.303847 
L 763.765289 400.376153 
L 763.765289 400.376153 
L 722.261157 400.376153 
L 694.591736 400.376153 
L 666.922314 400.376153 
L 639.252893 400.376153 
L 611.583471 400.376153 
L 583.91405 400.376153 
L 556.244628 400.376153 
L 528.575207 400.376153 
L 487.071074 400.376153 
z
" clip-path="url(#p27f0954c3d)" style="fill: #1f77b4; fill-opacity: 0.25"/>
   </g>
   <g id="matplotlib.axis_5">
    <g id="xtick_14">
     <g id="line2d_31">
      <g>
       <use xlink:href="#m5df55db0b3" x="473.236364" y="512.64" style="stroke: #000000; stroke-width: 0.8"/>
      </g>
     </g>
     <g id="text_29">
      <!-- 0 -->
      <g transform="translate(470.055114 527.238438) scale(0.1 -0.1)">
       <use xlink:href="#DejaVuSans-30"/>
      </g>
     </g>
    </g>
    <g id="xtick_15">
     <g id="line2d_32">
      <g>
       <use xlink:href="#m5df55db0b3" x="528.575207" y="512.64" style="stroke: #000000; stroke-width: 0.8"/>
      </g>
     </g>
     <g id="text_30">
      <!-- 2 -->
      <g transform="translate(525.393957 527.238438) scale(0.1 -0.1)">
       <use xlink:href="#DejaVuSans-32"/>
      </g>
     </g>
    </g>
    <g id="xtick_16">
     <g id="line2d_33">
      <g>
       <use xlink:href="#m5df55db0b3" x="583.91405" y="512.64" style="stroke: #000000; stroke-width: 0.8"/>
      </g>
     </g>
     <g id="text_31">
      <!-- 4 -->
      <g transform="translate(580.7328 527.238438) scale(0.1 -0.1)">
       <use xlink:href="#DejaVuSans-34"/>
      </g>
     </g>
    </g>
    <g id="xtick_17">
     <g id="line2d_34">
      <g>
       <use xlink:href="#m5df55db0b3" x="639.252893" y="512.64" style="stroke: #000000; stroke-width: 0.8"/>
      </g>
     </g>
     <g id="text_32">
      <!-- 6 -->
      <g transform="translate(636.071643 527.238438) scale(0.1 -0.1)">
       <use xlink:href="#DejaVuSans-36"/>
      </g>
     </g>
    </g>
    <g id="xtick_18">
     <g id="line2d_35">
      <g>
       <use xlink:href="#m5df55db0b3" x="694.591736" y="512.64" style="stroke: #000000; stroke-width: 0.8"/>
      </g>
     </g>
     <g id="text_33">
      <!-- 8 -->
      <g transform="translate(691.410486 527.238438) scale(0.1 -0.1)">
       <use xlink:href="#DejaVuSans-38"/>
      </g>
     </g>
    </g>
    <g id="xtick_19">
     <g id="line2d_36">
      <g>
       <use xlink:href="#m5df55db0b3" x="749.930579" y="512.64" style="stroke: #000000; stroke-width: 0.8"/>
      </g>
     </g>
     <g id="text_34">
      <!-- 10 -->
      <g transform="translate(743.568079 527.238438) scale(0.1 -0.1)">
       <use xlink:href="#DejaVuSans-31"/>
       <use xlink:href="#DejaVuSans-30" x="63.623047"/>
      </g>
     </g>
    </g>
   </g>
   <g id="matplotlib.axis_6">
    <g id="ytick_15">
     <g id="line2d_37">
      <g>
       <use xlink:href="#mf482631688" x="473.236364" y="512.64" style="stroke: #000000; stroke-width: 0.8"/>
      </g>
     </g>
     <g id="text_35">
      <!-- −1.00 -->
      <g transform="translate(435.591051 516.439219) scale(0.1 -0.1)">
       <use xlink:href="#DejaVuSans-2212"/>
       <use xlink:href="#DejaVuSans-31" x="83.789062"/>
       <use xlink:href="#DejaVuSans-2e" x="147.412109"/>
       <use xlink:href="#DejaVuSans-30" x="179.199219"/>
       <use xlink:href="#DejaVuSans-30" x="242.822266"/>
      </g>
     </g>
    </g>
    <g id="ytick_16">
     <g id="line2d_38">
      <g>
       <use xlink:href="#mf482631688" x="473.236364" y="487.44" style="stroke: #000000; stroke-width: 0.8"/>
      </g>
     </g>
     <g id="text_36">
      <!-- −0.75 -->
      <g transform="translate(435.591051 491.239219) scale(0.1 -0.1)">
       <use xlink:href="#DejaVuSans-2212"/>
       <use xlink:href="#DejaVuSans-30" x="83.789062"/>
       <use xlink:href="#DejaVuSans-2e" x="147.412109"/>
       <use xlink:href="#DejaVuSans-37" x="179.199219"/>
       <use xlink:href="#DejaVuSans-35" x="242.822266"/>
      </g>
     </g>
    </g>
    <g id="ytick_17">
     <g id="line2d_39">
      <g>
       <use xlink:href="#mf482631688" x="473.236364" y="462.24" style="stroke: #000000; stroke-width: 0.8"/>
      </g>
     </g>
     <g id="text_37">
      <!-- −0.50 -->
      <g transform="translate(435.591051 466.039219) scale(0.1 -0.1)">
       <use xlink:href="#DejaVuSans-2212"/>
       <use xlink:href="#DejaVuSans-30" x="83.789062"/>
       <use xlink:href="#DejaVuSans-2e" x="147.412109"/>
       <use xlink:href="#DejaVuSans-35" x="179.199219"/>
       <use xlink:href="#DejaVuSans-30" x="242.822266"/>
      </g>
     </g>
    </g>
    <g id="ytick_18">
     <g id="line2d_40">
      <g>
       <use xlink:href="#mf482631688" x="473.236364" y="437.04" style="stroke: #000000; stroke-width: 0.8"/>
      </g>
     </g>
     <g id="text_38">
      <!-- −0.25 -->
      <g transform="translate(435.591051 440.839219) scale(0.1 -0.1)">
       <use xlink:href="#DejaVuSans-2212"/>
       <use xlink:href="#DejaVuSans-30" x="83.789062"/>
       <use xlink:href="#DejaVuSans-2e" x="147.412109"/>
       <use xlink:href="#DejaVuSans-32" x="179.199219"/>
       <use xlink:href="#DejaVuSans-35" x="242.822266"/>
      </g>
     </g>
    </g>
    <g id="ytick_19">
     <g id="line2d_41">
      <g>
       <use xlink:href="#mf482631688" x="473.236364" y="411.84" style="stroke: #000000; stroke-width: 0.8"/>
      </g>
     </g>
     <g id="text_39">
      <!-- 0.00 -->
      <g transform="translate(443.970739 415.639219) scale(0.1 -0.1)">
       <use xlink:href="#DejaVuSans-30"/>
       <use xlink:href="#DejaVuSans-2e" x="63.623047"/>
       <use xlink:href="#DejaVuSans-30" x="95.410156"/>
       <use xlink:href="#DejaVuSans-30" x="159.033203"/>
      </g>
     </g>
    </g>
    <g id="ytick_20">
     <g id="line2d_42">
      <g>
       <use xlink:href="#mf482631688" x="473.236364" y="386.64" style="stroke: #000000; stroke-width: 0.8"/>
      </g>
     </g>
     <g id="text_40">
      <!-- 0.25 -->
      <g transform="translate(443.970739 390.439219) scale(0.1 -0.1)">
       <use xlink:href="#DejaVuSans-30"/>
       <use xlink:href="#DejaVuSans-2e" x="63.623047"/>
       <use xlink:href="#DejaVuSans-32" x="95.410156"/>
       <use xlink:href="#DejaVuSans-35" x="159.033203"/>
      </g>
     </g>
    </g>
    <g id="ytick_21">
     <g id="line2d_43">
      <g>
       <use xlink:href="#mf482631688" x="473.236364" y="361.44" style="stroke: #000000; stroke-width: 0.8"/>
      </g>
     </g>
     <g id="text_41">
      <!-- 0.50 -->
      <g transform="translate(443.970739 365.239219) scale(0.1 -0.1)">
       <use xlink:href="#DejaVuSans-30"/>
       <use xlink:href="#DejaVuSans-2e" x="63.623047"/>
       <use xlink:href="#DejaVuSans-35" x="95.410156"/>
       <use xlink:href="#DejaVuSans-30" x="159.033203"/>
      </g>
     </g>
    </g>
    <g id="ytick_22">
     <g id="line2d_44">
      <g>
       <use xlink:href="#mf482631688" x="473.236364" y="336.24" style="stroke: #000000; stroke-width: 0.8"/>
      </g>
     </g>
     <g id="text_42">
      <!-- 0.75 -->
      <g transform="translate(443.970739 340.039219) scale(0.1 -0.1)">
       <use xlink:href="#DejaVuSans-30"/>
       <use xlink:href="#DejaVuSans-2e" x="63.623047"/>
       <use xlink:href="#DejaVuSans-37" x="95.410156"/>
       <use xlink:href="#DejaVuSans-35" x="159.033203"/>
      </g>
     </g>
    </g>
    <g id="ytick_23">
     <g id="line2d_45">
      <g>
       <use xlink:href="#mf482631688" x="473.236364" y="311.04" style="stroke: #000000; stroke-width: 0.8"/>
      </g>
     </g>
     <g id="text_43">
      <!-- 1.00 -->
      <g transform="translate(443.970739 314.839219) scale(0.1 -0.1)">
       <use xlink:href="#DejaVuSans-31"/>
       <use xlink:href="#DejaVuSans-2e" x="63.623047"/>
       <use xlink:href="#DejaVuSans-30" x="95.410156"/>
       <use xlink:href="#DejaVuSans-30" x="159.033203"/>
      </g>
     </g>
    </g>
   </g>
   <g id="LineCollection_2">
    <path d="M 500.905785 411.84 
L 500.905785 476.863254 
" clip-path="url(#p27f0954c3d)" style="fill: none; stroke: #1f77b4; stroke-width: 1.5"/>
    <path d="M 528.575207 411.84 
L 528.575207 444.33352 
" clip-path="url(#p27f0954c3d)" style="fill: none; stroke: #1f77b4; stroke-width: 1.5"/>
    <path d="M 556.244628 411.84 
L 556.244628 437.295965 
" clip-path="url(#p27f0954c3d)" style="fill: none; stroke: #1f77b4; stroke-width: 1.5"/>
    <path d="M 583.91405 411.84 
L 583.91405 442.060419 
" clip-path="url(#p27f0954c3d)" style="fill: none; stroke: #1f77b4; stroke-width: 1.5"/>
    <path d="M 611.583471 411.84 
L 611.583471 421.881501 
" clip-path="url(#p27f0954c3d)" style="fill: none; stroke: #1f77b4; stroke-width: 1.5"/>
    <path d="M 639.252893 411.84 
L 639.252893 425.579416 
" clip-path="url(#p27f0954c3d)" style="fill: none; stroke: #1f77b4; stroke-width: 1.5"/>
    <path d="M 666.922314 411.84 
L 666.922314 417.268026 
" clip-path="url(#p27f0954c3d)" style="fill: none; stroke: #1f77b4; stroke-width: 1.5"/>
    <path d="M 694.591736 411.84 
L 694.591736 428.072905 
" clip-path="url(#p27f0954c3d)" style="fill: none; stroke: #1f77b4; stroke-width: 1.5"/>
    <path d="M 722.261157 411.84 
L 722.261157 426.126835 
" clip-path="url(#p27f0954c3d)" style="fill: none; stroke: #1f77b4; stroke-width: 1.5"/>
    <path d="M 749.930579 411.84 
L 749.930579 413.053223 
" clip-path="url(#p27f0954c3d)" style="fill: none; stroke: #1f77b4; stroke-width: 1.5"/>
   </g>
   <g id="line2d_46">
    <path d="M 473.236364 411.84 
L 777.6 411.84 
" clip-path="url(#p27f0954c3d)" style="fill: none; stroke: #1f77b4; stroke-width: 1.5; stroke-linecap: square"/>
   </g>
   <g id="line2d_47">
    <g clip-path="url(#p27f0954c3d)">
     <use xlink:href="#m95cd7cf86a" x="500.905785" y="476.863254" style="fill: #1f77b4; stroke: #1f77b4"/>
     <use xlink:href="#m95cd7cf86a" x="528.575207" y="444.33352" style="fill: #1f77b4; stroke: #1f77b4"/>
     <use xlink:href="#m95cd7cf86a" x="556.244628" y="437.295965" style="fill: #1f77b4; stroke: #1f77b4"/>
     <use xlink:href="#m95cd7cf86a" x="583.91405" y="442.060419" style="fill: #1f77b4; stroke: #1f77b4"/>
     <use xlink:href="#m95cd7cf86a" x="611.583471" y="421.881501" style="fill: #1f77b4; stroke: #1f77b4"/>
     <use xlink:href="#m95cd7cf86a" x="639.252893" y="425.579416" style="fill: #1f77b4; stroke: #1f77b4"/>
     <use xlink:href="#m95cd7cf86a" x="666.922314" y="417.268026" style="fill: #1f77b4; stroke: #1f77b4"/>
     <use xlink:href="#m95cd7cf86a" x="694.591736" y="428.072905" style="fill: #1f77b4; stroke: #1f77b4"/>
     <use xlink:href="#m95cd7cf86a" x="722.261157" y="426.126835" style="fill: #1f77b4; stroke: #1f77b4"/>
     <use xlink:href="#m95cd7cf86a" x="749.930579" y="413.053223" style="fill: #1f77b4; stroke: #1f77b4"/>
    </g>
   </g>
   <g id="patch_13">
    <path d="M 473.236364 512.64 
L 473.236364 311.04 
" style="fill: none; stroke: #000000; stroke-width: 0.8; stroke-linejoin: miter; stroke-linecap: square"/>
   </g>
   <g id="patch_14">
    <path d="M 777.6 512.64 
L 777.6 311.04 
" style="fill: none; stroke: #000000; stroke-width: 0.8; stroke-linejoin: miter; stroke-linecap: square"/>
   </g>
   <g id="patch_15">
    <path d="M 473.236364 512.64 
L 777.6 512.64 
" style="fill: none; stroke: #000000; stroke-width: 0.8; stroke-linejoin: miter; stroke-linecap: square"/>
   </g>
   <g id="patch_16">
    <path d="M 473.236364 311.04 
L 777.6 311.04 
" style="fill: none; stroke: #000000; stroke-width: 0.8; stroke-linejoin: miter; stroke-linecap: square"/>
   </g>
   <g id="text_44">
    <!-- Partial Autocorrelation -->
    <g transform="translate(558.535057 305.04) scale(0.12 -0.12)">
     <defs>
      <path id="DejaVuSans-50" d="M 1259 4147 
L 1259 2394 
L 2053 2394 
Q 2494 2394 2734 2622 
Q 2975 2850 2975 3272 
Q 2975 3691 2734 3919 
Q 2494 4147 2053 4147 
L 1259 4147 
z
M 628 4666 
L 2053 4666 
Q 2838 4666 3239 4311 
Q 3641 3956 3641 3272 
Q 3641 2581 3239 2228 
Q 2838 1875 2053 1875 
L 1259 1875 
L 1259 0 
L 628 0 
L 628 4666 
z
" transform="scale(0.015625)"/>
      <path id="DejaVuSans-20" transform="scale(0.015625)"/>
     </defs>
     <use xlink:href="#DejaVuSans-50"/>
     <use xlink:href="#DejaVuSans-61" x="55.802734"/>
     <use xlink:href="#DejaVuSans-72" x="117.082031"/>
     <use xlink:href="#DejaVuSans-74" x="158.195312"/>
     <use xlink:href="#DejaVuSans-69" x="197.404297"/>
     <use xlink:href="#DejaVuSans-61" x="225.1875"/>
     <use xlink:href="#DejaVuSans-6c" x="286.466797"/>
     <use xlink:href="#DejaVuSans-20" x="314.25"/>
     <use xlink:href="#DejaVuSans-41" x="346.037109"/>
     <use xlink:href="#DejaVuSans-75" x="414.445312"/>
     <use xlink:href="#DejaVuSans-74" x="477.824219"/>
     <use xlink:href="#DejaVuSans-6f" x="517.033203"/>
     <use xlink:href="#DejaVuSans-63" x="578.214844"/>
     <use xlink:href="#DejaVuSans-6f" x="633.195312"/>
     <use xlink:href="#DejaVuSans-72" x="694.376953"/>
     <use xlink:href="#DejaVuSans-72" x="733.740234"/>
     <use xlink:href="#DejaVuSans-65" x="772.603516"/>
     <use xlink:href="#DejaVuSans-6c" x="834.126953"/>
     <use xlink:href="#DejaVuSans-61" x="861.910156"/>
     <use xlink:href="#DejaVuSans-74" x="923.189453"/>
     <use xlink:href="#DejaVuSans-69" x="962.398438"/>
     <use xlink:href="#DejaVuSans-6f" x="990.181641"/>
     <use xlink:href="#DejaVuSans-6e" x="1051.363281"/>
    </g>
   </g>
  </g>
  <g id="text_45">
   <!-- eruption2000.dat(1st_diff) -->
   <g transform="translate(326.72625 23.6775) scale(0.16 -0.16)">
    <defs>
     <path id="DejaVuSans-70" d="M 1159 525 
L 1159 -1331 
L 581 -1331 
L 581 3500 
L 1159 3500 
L 1159 2969 
Q 1341 3281 1617 3432 
Q 1894 3584 2278 3584 
Q 2916 3584 3314 3078 
Q 3713 2572 3713 1747 
Q 3713 922 3314 415 
Q 2916 -91 2278 -91 
Q 1894 -91 1617 61 
Q 1341 213 1159 525 
z
M 3116 1747 
Q 3116 2381 2855 2742 
Q 2594 3103 2138 3103 
Q 1681 3103 1420 2742 
Q 1159 2381 1159 1747 
Q 1159 1113 1420 752 
Q 1681 391 2138 391 
Q 2594 391 2855 752 
Q 3116 1113 3116 1747 
z
" transform="scale(0.015625)"/>
     <path id="DejaVuSans-64" d="M 2906 2969 
L 2906 4863 
L 3481 4863 
L 3481 0 
L 2906 0 
L 2906 525 
Q 2725 213 2448 61 
Q 2172 -91 1784 -91 
Q 1150 -91 751 415 
Q 353 922 353 1747 
Q 353 2572 751 3078 
Q 1150 3584 1784 3584 
Q 2172 3584 2448 3432 
Q 2725 3281 2906 2969 
z
M 947 1747 
Q 947 1113 1208 752 
Q 1469 391 1925 391 
Q 2381 391 2643 752 
Q 2906 1113 2906 1747 
Q 2906 2381 2643 2742 
Q 2381 3103 1925 3103 
Q 1469 3103 1208 2742 
Q 947 2381 947 1747 
z
" transform="scale(0.015625)"/>
     <path id="DejaVuSans-28" d="M 1984 4856 
Q 1566 4138 1362 3434 
Q 1159 2731 1159 2009 
Q 1159 1288 1364 580 
Q 1569 -128 1984 -844 
L 1484 -844 
Q 1016 -109 783 600 
Q 550 1309 550 2009 
Q 550 2706 781 3412 
Q 1013 4119 1484 4856 
L 1984 4856 
z
" transform="scale(0.015625)"/>
     <path id="DejaVuSans-73" d="M 2834 3397 
L 2834 2853 
Q 2591 2978 2328 3040 
Q 2066 3103 1784 3103 
Q 1356 3103 1142 2972 
Q 928 2841 928 2578 
Q 928 2378 1081 2264 
Q 1234 2150 1697 2047 
L 1894 2003 
Q 2506 1872 2764 1633 
Q 3022 1394 3022 966 
Q 3022 478 2636 193 
Q 2250 -91 1575 -91 
Q 1294 -91 989 -36 
Q 684 19 347 128 
L 347 722 
Q 666 556 975 473 
Q 1284 391 1588 391 
Q 1994 391 2212 530 
Q 2431 669 2431 922 
Q 2431 1156 2273 1281 
Q 2116 1406 1581 1522 
L 1381 1569 
Q 847 1681 609 1914 
Q 372 2147 372 2553 
Q 372 3047 722 3315 
Q 1072 3584 1716 3584 
Q 2034 3584 2315 3537 
Q 2597 3491 2834 3397 
z
" transform="scale(0.015625)"/>
     <path id="DejaVuSans-5f" d="M 3263 -1063 
L 3263 -1509 
L -63 -1509 
L -63 -1063 
L 3263 -1063 
z
" transform="scale(0.015625)"/>
     <path id="DejaVuSans-66" d="M 2375 4863 
L 2375 4384 
L 1825 4384 
Q 1516 4384 1395 4259 
Q 1275 4134 1275 3809 
L 1275 3500 
L 2222 3500 
L 2222 3053 
L 1275 3053 
L 1275 0 
L 697 0 
L 697 3053 
L 147 3053 
L 147 3500 
L 697 3500 
L 697 3744 
Q 697 4328 969 4595 
Q 1241 4863 1831 4863 
L 2375 4863 
z
" transform="scale(0.015625)"/>
     <path id="DejaVuSans-29" d="M 513 4856 
L 1013 4856 
Q 1481 4119 1714 3412 
Q 1947 2706 1947 2009 
Q 1947 1309 1714 600 
Q 1481 -109 1013 -844 
L 513 -844 
Q 928 -128 1133 580 
Q 1338 1288 1338 2009 
Q 1338 2731 1133 3434 
Q 928 4138 513 4856 
z
" transform="scale(0.015625)"/>
    </defs>
    <use xlink:href="#DejaVuSans-65"/>
    <use xlink:href="#DejaVuSans-72" x="61.523438"/>
    <use xlink:href="#DejaVuSans-75" x="102.636719"/>
    <use xlink:href="#DejaVuSans-70" x="166.015625"/>
    <use xlink:href="#DejaVuSans-74" x="229.492188"/>
    <use xlink:href="#DejaVuSans-69" x="268.701172"/>
    <use xlink:href="#DejaVuSans-6f" x="296.484375"/>
    <use xlink:href="#DejaVuSans-6e" x="357.666016"/>
    <use xlink:href="#DejaVuSans-32" x="421.044922"/>
    <use xlink:href="#DejaVuSans-30" x="484.667969"/>
    <use xlink:href="#DejaVuSans-30" x="548.291016"/>
    <use xlink:href="#DejaVuSans-30" x="611.914062"/>
    <use xlink:href="#DejaVuSans-2e" x="675.537109"/>
    <use xlink:href="#DejaVuSans-64" x="707.324219"/>
    <use xlink:href="#DejaVuSans-61" x="770.800781"/>
    <use xlink:href="#DejaVuSans-74" x="832.080078"/>
    <use xlink:href="#DejaVuSans-28" x="871.289062"/>
    <use xlink:href="#DejaVuSans-31" x="910.302734"/>
    <use xlink:href="#DejaVuSans-73" x="973.925781"/>
    <use xlink:href="#DejaVuSans-74" x="1026.025391"/>
    <use xlink:href="#DejaVuSans-5f" x="1065.234375"/>
    <use xlink:href="#DejaVuSans-64" x="1115.234375"/>
    <use xlink:href="#DejaVuSans-69" x="1178.710938"/>
    <use xlink:href="#DejaVuSans-66" x="1206.494141"/>
    <use xlink:href="#DejaVuSans-66" x="1241.699219"/>
    <use xlink:href="#DejaVuSans-29" x="1276.904297"/>
   </g>
  </g>
 </g>
 <defs>
  <clipPath id="p08bb979ed8">
   <rect x="108" y="69.12" width="669.6" height="201.6"/>
  </clipPath>
  <clipPath id="pb59f33ec22">
   <rect x="108" y="311.04" width="304.363636" height="201.6"/>
  </clipPath>
  <clipPath id="p27f0954c3d">
   <rect x="473.236364" y="311.04" width="304.363636" height="201.6"/>
  </clipPath>
 </defs>
</svg>
